<?xml version="1.0" standalone="no"?>
<!DOCTYPE svg PUBLIC "-//W3C//DTD SVG 20010904//EN"
 "http://www.w3.org/TR/2001/REC-SVG-20010904/DTD/svg10.dtd">
<svg version="1.0" xmlns="http://www.w3.org/2000/svg"
 width="500.000000pt" height="500.000000pt" viewBox="0 0 500.000000 500.000000"
 preserveAspectRatio="xMidYMid meet">

<g transform="translate(0.000000,500.000000) scale(0.100000,-0.100000)"
fill="#000000" stroke="none">
<path d="M2447 4326 c-80 -29 -152 -105 -210 -221 -80 -160 -99 -262 -86 -461
40 -624 41 -657 25 -666 -43 -24 -68 -55 -68 -84 0 -16 -20 -76 -45 -134 -67
-151 -66 -153 56 -494 55 -153 107 -289 116 -302 16 -25 84 -49 98 -35 7 7 -6
453 -17 600 -6 64 3 58 33 -24 12 -33 28 -66 35 -75 12 -12 10 -90 -10 -470
-13 -250 -23 -474 -24 -497 0 -41 0 -41 -42 -48 -146 -23 -267 -101 -330 -211
l-29 -52 -62 5 c-77 7 -129 -16 -178 -77 -30 -36 -37 -40 -79 -40 -65 0 -109
-21 -158 -73 -44 -48 -59 -94 -48 -151 l6 -33 -60 -6 c-33 -4 -75 -13 -92 -20
-40 -17 -88 -64 -88 -85 0 -9 14 1 35 25 35 41 67 55 160 68 39 6 42 4 88 -50
27 -30 53 -55 58 -55 6 0 -10 23 -34 51 -55 63 -74 123 -56 178 23 71 113 140
185 141 17 0 51 -7 74 -15 48 -17 67 -12 26 6 -14 7 -26 16 -26 20 0 15 53 70
83 86 35 18 132 22 148 6 7 -7 6 -32 0 -74 -13 -78 -13 -92 -2 -85 4 3 11 32
13 64 12 124 99 257 207 311 43 22 142 51 175 51 21 0 21 -34 -1 -437 l-6
-122 -28 6 c-34 6 -92 -11 -142 -43 -25 -16 -45 -22 -61 -18 -31 8 -79 -18
-110 -59 -41 -54 -30 -56 17 -4 66 71 105 64 164 -29 10 -17 12 -17 12 -2 1 9
-10 30 -24 47 l-26 30 41 27 c82 54 168 42 238 -35 l33 -36 -18 34 c-10 18
-33 43 -51 55 l-34 21 6 76 c4 42 20 343 36 670 44 886 41 830 59 827 12 -3
18 -23 24 -93 5 -50 14 -96 19 -102 13 -16 60 -17 76 -1 7 7 12 35 13 62 1 82
12 130 32 134 11 2 17 -3 17 -15 0 -30 49 -985 60 -1168 5 -93 10 -175 10
-182 0 -6 -12 -15 -28 -21 -32 -11 -92 -59 -92 -74 0 -6 16 4 36 22 40 34 73
50 107 50 21 0 32 -5 86 -38 11 -7 21 -9 21 -4 0 14 -50 45 -85 52 l-30 6 -6
99 c-4 57 -2 104 3 110 5 6 46 10 91 10 69 0 91 -4 137 -27 31 -15 71 -42 89
-60 32 -31 107 -138 99 -141 -67 -34 -85 -48 -101 -75 -27 -46 -15 -50 14 -4
17 26 37 42 67 52 39 13 47 13 94 -4 45 -16 92 -43 132 -78 6 -4 -8 -23 -31
-43 -25 -21 -48 -54 -59 -80 -13 -35 -22 -45 -40 -45 -35 0 -66 -15 -96 -45
-39 -39 -35 -55 5 -18 39 38 74 53 110 46 23 -5 27 -2 27 18 0 12 9 42 21 65
15 33 32 49 72 68 100 51 186 25 263 -77 26 -34 56 -81 67 -104 23 -47 44 -60
25 -15 -42 94 -119 186 -184 218 -46 22 -62 25 -104 20 -45 -6 -53 -4 -97 28
-52 37 -115 66 -143 66 -11 0 -30 21 -50 56 -39 70 -104 134 -167 165 -41 21
-63 24 -151 24 l-102 0 0 25 c0 24 -10 224 -44 865 -13 245 -13 260 4 285 10
14 28 57 41 95 13 39 24 63 26 55 2 -8 -3 -159 -11 -335 -8 -176 -11 -324 -6
-329 13 -13 78 13 98 39 11 13 64 149 118 302 120 338 121 348 56 492 -23 51
-42 107 -42 123 0 30 -33 72 -74 95 -19 11 -20 17 -8 189 30 463 36 633 24
705 -31 182 -152 387 -260 443 -43 22 -112 28 -155 12z m156 -40 c48 -34 81
-65 75 -72 -4 -3 -33 -12 -64 -20 -67 -15 -182 -11 -237 8 l-38 13 35 34 c66
64 167 80 229 37z m-132 -121 c56 -6 127 3 217 27 16 4 84 -104 113 -181 30
-80 55 -209 42 -222 -22 -22 -198 -49 -328 -50 -136 -1 -298 22 -332 46 -16
12 -16 19 -5 85 14 82 70 223 112 286 l30 42 43 -13 c24 -7 73 -16 108 -20z
m-23 -455 l52 0 0 -35 c0 -35 0 -35 -45 -35 l-45 0 0 -106 0 -107 -35 -38
c-20 -22 -40 -58 -46 -84 -13 -50 -16 -52 -86 -29 l-50 16 -11 211 c-7 117
-12 221 -12 232 l0 21 113 -23 c61 -12 136 -23 165 -23z m401 28 c-2 -106 -27
-439 -32 -444 -3 -4 -30 -13 -59 -20 -56 -15 -68 -10 -68 32 0 29 -39 84 -79
111 -43 29 -96 39 -144 26 -47 -13 -46 -14 -44 97 l2 85 45 5 c44 5 45 6 48
43 3 36 4 37 46 37 46 0 255 35 264 44 12 13 22 5 21 -16z m-259 -323 c107
-54 121 -209 27 -286 -74 -60 -193 -41 -248 39 -36 53 -34 145 4 195 54 71
139 91 217 52z m-307 -161 c21 -4 40 -12 42 -18 2 -6 6 -23 9 -37 3 -15 23
-44 43 -64 35 -35 38 -42 38 -96 0 -32 4 -61 8 -65 4 -5 23 -7 42 -6 33 2 35
1 35 -28 0 -26 -3 -30 -28 -30 -57 0 -62 -13 -53 -130 5 -58 7 -107 5 -109 -3
-3 -47 3 -98 13 l-94 18 -7 96 c-3 54 -10 155 -15 226 -6 72 -10 157 -10 189
0 57 1 59 23 53 12 -3 39 -9 60 -12z m537 -21 c0 -21 -7 -139 -15 -263 -8
-124 -15 -235 -15 -246 0 -20 -10 -24 -95 -40 -52 -10 -97 -16 -99 -13 -3 2
-1 51 4 109 6 64 6 108 0 114 -5 5 -26 12 -47 15 -34 6 -38 9 -38 36 0 28 -3
30 -42 33 l-43 3 0 53 0 52 63 -4 c102 -7 171 42 197 137 5 21 16 28 56 38 74
17 74 17 74 -24z m-625 -376 c4 -51 5 -103 4 -116 l-4 -24 -28 24 c-24 21 -28
34 -33 100 -6 72 -5 77 17 92 13 10 27 17 30 17 4 0 10 -42 14 -93z m674 76
c22 -15 23 -20 17 -92 -7 -81 -29 -120 -61 -107 -9 3 -14 10 -11 14 3 5 6 52
7 106 1 102 6 109 48 79z m-300 -52 c12 -8 11 -52 -8 -313 -12 -166 -25 -313
-28 -325 -3 -14 -13 -23 -24 -23 -24 0 -24 3 -43 255 -31 406 -30 396 -15 406
18 11 100 11 118 0z m415 -271 c1 -46 -14 -97 -92 -315 -51 -143 -99 -274
-106 -290 -13 -30 -60 -64 -72 -52 -5 5 7 357 22 613 l6 102 43 12 c72 20 103
44 115 92 l12 42 35 -74 c25 -55 35 -90 37 -130z m-864 165 c0 -36 37 -69 101
-90 30 -10 57 -20 60 -24 4 -3 12 -145 18 -316 6 -170 14 -329 16 -352 5 -50
-9 -56 -50 -20 -19 17 -49 90 -126 307 -114 323 -116 336 -63 454 31 70 44 82
44 41z m580 -118 c0 -19 -77 -217 -84 -217 -3 0 -11 -3 -20 -6 -14 -5 -16 3
-16 54 0 32 3 80 6 104 6 44 8 46 48 56 46 11 66 14 66 9z m-274 -20 c1 -1 5
-48 9 -104 6 -88 5 -103 -8 -103 -20 0 -36 22 -52 72 -8 24 -23 67 -34 97
l-20 53 52 -6 c28 -4 52 -8 53 -9z"/>
<path d="M2430 3351 c-52 -52 -52 -126 1 -177 25 -24 39 -29 79 -29 40 0 54 5
79 29 53 51 53 125 1 177 -24 24 -37 29 -80 29 -43 0 -56 -5 -80 -29z m129 6
c34 -17 63 -75 55 -112 -3 -16 -19 -42 -35 -57 -66 -62 -169 -18 -169 72 0 86
75 135 149 97z"/>
</g>
</svg>
